# xmcd CD database file
#
# Track frame offsets:
#	150
#	28647
#	38872
#	58655
#	79747
#	104130
#	122242
#	147882
#	158465
#	183105
#	215537
#	266260
#
# Disc length: 3979 seconds
#
# Revision: 0
# Processed by: cddbd v1.5PL3 Copyright (c) Steve Scherf et al.
# Submitted via: CDex 1.51
#
DISCID=a10f890c
DTITLE=白倉由美 - ミルナの禁忌 サウンド・ストーリー <ディレクターズ・カット>
DYEAR=1998
DGENRE=Other
TTITLE0=第1話  「死は確実、その時は不確実」
TTITLE1=第2話  「How to tell a true death story」
TTITLE2=第3話  「創造者と被創造者のディスコース」
TTITLE3=第4話  「連鎖する知覚」
TTITLE4=第5話  「リミナリティ」
TTITLE5=第6話  「遅延を示唆する強制世界」
TTITLE6=第7話  「Rabbit is run」
TTITLE7=第8話  「テクストのイニシエーション」
TTITLE8=第9話  「換喩的な置き換えの近接性について」
TTITLE9=第10話 「言葉が海へとつながる」
TTITLE10=第11話 「誰もが歌を聞いている」
TTITLE11=川上とも子/成田紗矢香/桂川千絵 - 「ミルナの禁忌」
EXTD=YEAR: 1998
EXTT0=
EXTT1=
EXTT2=
EXTT3=
EXTT4=
EXTT5=
EXTT6=
EXTT7=
EXTT8=
EXTT9=
EXTT10=
EXTT11=
PLAYORDER=
